<?xml version="1.0" standalone="no"?><svg xmlns="http://www.w3.org/2000/svg" viewBox="0 0 1440 320"><path fill="#ffffff" fill-opacity="1" d="M0,96L21.8,90.7C43.6,85,87,75,131,106.7C174.5,139,218,213,262,250.7C305.5,288,349,288,393,266.7C436.4,245,480,203,524,154.7C567.3,107,611,53,655,64C698.2,75,742,149,785,160C829.1,171,873,117,916,117.3C960,117,1004,171,1047,186.7C1090.9,203,1135,181,1178,149.3C1221.8,117,1265,75,1309,64C1352.7,53,1396,75,1418,85.3L1440,96L1440,320L1418.2,320C1396.4,320,1353,320,1309,320C1265.5,320,1222,320,1178,320C1134.5,320,1091,320,1047,320C1003.6,320,960,320,916,320C872.7,320,829,320,785,320C741.8,320,698,320,655,320C610.9,320,567,320,524,320C480,320,436,320,393,320C349.1,320,305,320,262,320C218.2,320,175,320,131,320C87.3,320,44,320,22,320L0,320Z"></path></svg>